<svg width="241" height="241" viewBox="0 0 241 241" fill="none" xmlns="http://www.w3.org/2000/svg">
<rect x="113.803" width="170.146" height="170.146" rx="37" transform="rotate(41.9785 113.803 0)" fill="url(#paint0_linear)" fill-opacity="0.5"/>
<rect x="70.0228" y="40.822" width="170" height="170" rx="29" fill="url(#paint1_linear)"/>
<path d="M111.517 96.5595C106.47 93.4926 99.7977 95.0789 97.6059 100.563C93.0738 111.903 91.8268 124.373 94.129 136.515C97.0995 152.183 105.769 166.195 118.464 175.846C131.158 185.497 146.978 190.104 162.87 188.776C178.761 187.449 193.597 180.281 204.515 168.657C215.432 157.033 221.656 141.777 221.986 125.834C222.316 109.891 216.728 94.3902 206.301 82.3248C195.873 70.2595 181.346 62.4846 165.523 60.5009C153.261 58.9637 140.894 60.9891 129.86 66.2224C124.523 68.7533 123.358 75.5116 126.735 80.357C130.112 85.2024 136.762 86.2445 142.288 84.1607C148.797 81.7062 155.855 80.8441 162.863 81.7226C173.439 83.0485 183.149 88.2453 190.119 96.3098C197.088 104.374 200.823 114.735 200.603 125.392C200.383 136.048 196.222 146.246 188.925 154.015C181.628 161.784 171.711 166.575 161.089 167.463C150.467 168.35 139.893 165.271 131.408 158.82C122.923 152.369 117.128 143.003 115.142 132.531C113.827 125.592 114.245 118.494 116.287 111.844C118.021 106.198 116.564 99.6264 111.517 96.5595Z" fill="white"/>
<circle cx="157.5" cy="124.5" r="22.5" fill="white"/>
<defs>
<linearGradient id="paint0_linear" x1="267.921" y1="-6.16472" x2="84.623" y2="200.148" gradientUnits="userSpaceOnUse">
<stop stop-color="#FC7D7B"/>
<stop offset="1" stop-color="#662D8C"/>
</linearGradient>
<linearGradient id="paint1_linear" x1="224.008" y1="34.6626" x2="40.8682" y2="240.798" gradientUnits="userSpaceOnUse">
<stop stop-color="#FC7D7B"/>
<stop offset="1" stop-color="#662D8C"/>
</linearGradient>
</defs>
</svg>
